<svg version="1" xmlns="http://www.w3.org/2000/svg" width="400" height="400" viewBox="0 0 300.000000 300.000000"><path d="M143.8 3c-27.2 3.2-53.4 10.8-77 22.6-10.4 5.2-23.9 17-34.1 29.8-8.8 11-11.4 17.8-12.8 33.1-1.1 12.4-2.3 21.5-4.5 32.5-1 4.7-1.5 12-1.3 19.5.1 9.4-.2 13-1.6 16.5-1.2 3.3-1.5 6-1.1 10.4.5 5 .3 6.2-1.7 9-1.7 2.4-2.2 4.6-2.3 10.1-.1 3.8-.6 8.1-1.1 9.5-.6 1.4-1 7.8-.9 14.2.1 10.8.3 11.9 2.5 14.2 2.8 3 8 5.6 11.2 5.6 1.3 0 3.5 1.2 5 2.6 2.9 2.7 5.1 3 15.5 1.9l6-.7 1.1 3.8c3 10.4 3.4 9.2-7.6 23-5.6 6.9-10.1 13-10.1 13.5 0 3.5 15.6 15.2 29.7 22.3 5.5 2.7 8.5 3.6 12.4 3.6 4.8 0 5.1-.1 4.5-2.3-.5-2.3-.4-2.3 5.7-1.9 3.4.2 6.7.8 7.3 1.3.7.5 4.9.9 9.5.9 4.6-.1 11.4.4 15.2 1.1 4.7.9 7.4.9 9 .2 5.2-2.4 7.9-3.3 10.4-3.3h2.6l-2.3 2-2.3 2h10.6c5.9 0 10.7-.4 10.7-.8 0-.5 3.1-5.2 6.9-10.5 3.8-5.4 8.2-12.9 9.8-16.7 1.5-3.8 3.2-7 3.7-7 .4 0 .5.8.1 1.7-.4 1-1.8 4.9-3.2 8.8-2.5 6.9-10 18.8-13.5 21.3-3.7 2.7-1.7 3.2 11.8 3.2 8.1 0 13.3-.4 12.9-.9-.3-.5-.1-1.2.5-1.6.5-.3 1 .1 1 1 0 1.4 1.5 1.6 10.8 1.4 5.9 0 11.2-.5 11.9-1.1.7-.6 1.4-.5 1.8.2 1 1.6 6.5 1.2 6.5-.5 0-.8.7-1.5 1.5-1.5s1.2.6 1 1.2c-.4 1 2.1 1.3 10.2 1.5 8.3.1 10.3-.1 8.8-.9-2.8-1.5-2.8-1.5-2-2.7.7-1.2 6.5 1.6 6.5 3.1 0 .4 4.6.8 10.3.8 9.5 0 10.3-.2 11.2-2.1 1.2-2.7 7.7-5.3 10.9-4.5 1.4.3 2.9 1.8 3.6 3.6 1 2.4 1.9 3 4.2 3 1.6 0 2.8-.3 2.6-.8-.1-.4-1.4-3.8-2.8-7.6-1.9-5.4-3.9-8.4-8.7-13.5-3.5-3.6-6.3-7.3-6.3-8.3 0-1.6-2.6-3.5-11.6-8.8l-4.3-2.6 2.8-2.9c1.6-1.7 5-7.9 7.6-14 4.3-9.8 4.7-11.5 4.2-16.5-.5-5.4-.3-5.7 2.5-7.6 2.9-1.9 5.8-6.2 5.8-8.6 0-.7-.7-2.6-1.5-4.2-1.8-3.4-1.4-4.2 2.5-5.1 1.6-.3 4.6-1.9 6.8-3.4 2.1-1.6 4.8-3.1 5.9-3.5 1.1-.4 4.6-3 7.7-5.9l5.6-5.3v-6.7c0-3.6.5-7.8 1.2-9.2 1.3-2.9-.3-12.2-2.9-16.5-.8-1.4-3.2-6.1-5.3-10.5-2.4-5-5.5-9.7-8.4-12.5-3.1-2.9-4.6-5.3-4.6-7 0-1.4-1.5-4.4-3.4-6.8-2.7-3.4-3.5-5.5-4.1-10.5-.7-6.2-4.8-20.2-6.6-22.3-.9-1.2-3.5-7.9-10.4-27.4-1.8-5.2-4-11.1-4.9-13C242.4 25.1 213 8.1 189 4.4c-12-1.8-35.2-2.5-45.2-1.4zm36.5 9c-1.8 1.6-3.3 3.2-3.3 3.4 0 .2-1.6 2.8-3.6 5.7-6 8.8-12.2 23.7-14 33.6-.4 2.1-1.5 5.4-2.5 7.3-2 3.8-2.5 9.5-.9 10.5 1.8 1.1 1.1 4.7-1 5.2-2.5.7-4.5 6.9-3.6 11.6.6 3.4 2.8 5.3 4.7 4.1.5-.3.9-.4.9-.2s.7 4.1 1.5 8.8c2.8 16.1 1.4 26-3.6 24.7-1.1-.3-2.2-.1-2.5.4-.3.5-1.7.9-3.2.8h-2.7l3.3-1.6c1.7-.9 3.2-2.1 3.2-2.6 0-1.5-4.5.1-11.1 3.9-5.5 3.3-6.8 3.6-12.3 3.4-7.4-.3-7.2-.3-16.6.4-4.2.3-9.6 0-12.3-.7l-4.8-1.1.6-3.7c.8-4.7-2.2-7.9-7.2-7.9-4.4 0-7.4 3.3-11.9 12.6-3.4 7.3-7.2 11-10.3 10.1-.9-.3-2.5-.8-3.5-1.3-1.3-.5-1.7-.4-1.2.4.3.6.2 1.3-.4 1.7-.5.3-1 .1-1-.6 0-1.4-3-3.8-4.7-3.9-.7 0-1.3.7-1.3 1.6 0 1.3-.7 1.5-3 1.1-2-.4-3.4-.1-4.5 1-.9.8-1.9 1.3-2.2.9-.9-.8 1.8-3.7 2.8-3 .5.3.9 0 .9-.6 0-.7.7-1 1.5-.6.8.3 1.5.1 1.5-.4 0-.6-.6-1-1.4-1-.9 0-1.2-.7-.9-2.1.4-1.6.8-1.7 1.4-.7 1.2 1.9 3.8-1.9 3.1-4.6-.3-1.2-.2-1.8.3-1.4.4.4 1.3.2 2-.5 1-.9 1-1.4 0-2.2-.7-.5-1.6-2.1-1.9-3.5-.5-1.9-.4-2.1.3-.9 1 1.6 7.6 1.9 11.8.6 3.1-1.1 7.3-7.1 7.3-10.6 0-5.4-5.5-8.4-11.1-6.1-2.3 1-3.2 2.3-4.1 5.5-1 3.6-1.4 4.1-2.5 3-.7-.8-1.3-1.8-1.3-2.3 0-.6-.5-1.2-1.2-1.4-.6-.2.9-1.6 3.4-3.1 5.3-3.1 14.5-12.8 15.4-16.2 1-4.1.1-7-2.1-6.7-1.1.2-2.7 1-3.5 1.7-.8.7-2.8 1.5-4.3 1.9-1.6.4-5 2.9-7.6 5.6-4.6 4.7-7.2 6.5-5.4 3.7.4-.6.9-4.1 1-7.7.2-3.6.8-7.9 1.4-9.7.5-1.7.9-6.5.8-10.7-.2-4.1 0-7.9.4-8.2.4-.4.7 0 .7.9 0 2.2 5.1 4.7 8.1 4 3.4-.8 7.9-5.3 7.9-7.9 0-3.1-2.4-4.7-6.5-4.2-3 .3-3.3.2-2-1.2.7-.8 1.7-2.8 2.1-4.5.9-3.6 3.1-6 6.4-7 2.8-.8 2.2.2-1.2 1.9-3.1 1.6-4.5 6.3-2.4 8.4 2.4 2.4 6.7.5 8.9-4.1 1.7-3.3 4.7-5.1 4.7-2.8 0 1.6 3.8 2.3 5.9 1.2 1.1-.6 2.2-1.9 2.5-2.9.5-1.3 1.5-1.7 4.3-1.4 2.5.2 4.6-.4 6.1-1.5 2.8-2.3 4.2-9.1 2.1-10.4-3.6-2.2-11.2.4-12.2 4.1-.7 2.6-3.9 2.3-4.3-.3-.1-1.1-.5-2.1-.8-2.4-.3-.3.6-2 2-3.8 2.4-3.2 2.7-3.3 9.3-3.2 4.5.1 7.3-.3 8.4-1.2 1.4-1.1 2-1.1 3.2-.1.8.7 2.3.9 3.2.5 1-.4 4.5-.9 7.8-1.1 8.3-.4 13.5-1.4 13.5-2.6 0-.5.5-.6 1-.3.6.3 1 .1 1-.4 0-1.8 2-1.3 3.8.9 1 1.1 3.2 2.1 5 2.2 1.9.1 3.6.6 3.9 1.2.4.5-1.9.7-5.3.4-6.6-.6-10.4.4-10.4 2.6 0 2.4 3.4 3.6 10 3.6 4.1 0 7.2-.6 9.1-1.7 2.9-1.7 3.1-1.7 7.8 1 2.7 1.5 5.6 2.7 6.5 2.7 2.7 0 3-2.9.7-5.4-2.8-3-2.7-3.3 1.4-2.8 3 .4 4.1-.1 7.3-3.4 2.1-2.2 4.3-4.6 4.8-5.4.8-1.4 4.2-3.8 5.4-3.9.3 0-1 1.3-2.7 2.9zm-28.2.7c.1 1.6.2 1.6.6 0 .5-1.8.6-1.8 2.4-.1 3.6 3.3 1.7 4.4-3.8 2.3-1.6-.6-2.3-1.3-1.5-1.6.6-.3 1-.9.6-1.4-.3-.5 0-.9.5-.9.6 0 1.2.8 1.2 1.7zM188 12c0 .5-.5 1-1.1 1-.5 0-.7-.5-.4-1 .3-.6.8-1 1.1-1 .2 0 .4.4.4 1zm-3.5 5.2c.5-.4.2.4-.7 1.8-.8 1.4-1.8 2.4-2.2 2.2-.3-.1-1.3-.2-2.1-.2-1.4 0-1.3-.3.1-2.5 1.2-1.8 2-2.2 2.9-1.5.6.5 1.6.6 2 .2zm17.7 8.5c2.2 1.4 5.5 2.9 7.6 3.2 2.5.4 4 1.4 4.9 3.1 1.1 2.2 1.8 2.1 1.4-.3 0-.4.4-.7.9-.7.6 0 1 .7 1 1.6 0 .9.8 1.4 1.8 1.3.9-.1 3.7 0 6.2.1 3.5.1 4.1.3 2.5 1-1.8.8-1.7.9.7.9 2.2.1 2.6-.2 2.1-1.7-.6-1.6-.6-1.6 1.1.1 1.4 1.4 2.1 1.5 3.2.6 1.9-1.6 4.6.9 8.2 7.5l2.8 5.1-3.9-1.9c-2.1-1-6.9-2.1-10.8-2.4-6-.4-7.3-.2-9.2 1.5-1.2 1.1-4.8 2.5-7.9 3.2-6.3 1.4-7.2 2.1-6.3 5.1.8 2.4 5 2.7 10 .6 3.2-1.4 3.6-1.4 4.5.5 1 1.7.7 1.9-1.9 1.9-4.8 0-4.5 2.5.9 6.4 4.5 3.3 4.9 3.8 4.3 6.6-.4 2.3 0 3.7 1.4 5.3 1.1 1.2 2.6 3.8 3.3 5.7 1.5 4.3 3.8 25.7 2.9 27.2-2.1 3.3-9.6-5.2-7.7-8.6 1.3-2.2.1-10.1-1.6-11.5-.8-.6-2.1-.9-3-.5-1.9.7-5.5-3.1-5.6-6 0-1.3.4-1.6 1.8-1.1 2 .9 5.2.9 6 0 .3-.3.6-2.1.6-3.9 0-4.4-4.2-10-9.6-12.7-4.6-2.4-8-1.9-9.4 1.2-.7 1.6-3.2 2.8-8.9 4.5-4.4 1.4-9.3 2.6-10.9 2.9-1.6.2-4.1 1.6-5.6 3-1.4 1.4-3.3 2.5-4.1 2.5-.8 0-2 .5-2.6 1.1-1.8 1.8-2.7-5.3-1.3-9.8 1.8-5.6 2.9-6.7 4.9-4.9 1.6 1.4 3.4 1.9 5.9 1.7 2.7-.2.8-6.9-3-10.3-1.5-1.3-1.8-2.4-1.3-4.7.7-3.5 1.3-3.7 4.1-1.6 1 .8 2.5 1.5 3.2 1.5.7 0 2 .7 2.8 1.5.9.8 1.9 1.5 2.3 1.5.7 0 14-9.7 14.2-10.3 0-.1.3-2.8.6-6 .4-4.7.1-6.2-1.3-7.8-.9-1-2.1-1.9-2.6-1.9s-1.8-.9-3-2c-3.1-2.9-1.1-2.5 3.4.7zm-25.7.3c.4.6 1.1.8 1.6.5 1.1-.8 1.1-.7-.4 3.5-1 3-1.6 3.5-4.4 3.5-3.9 0-4-.4-1-5 2.3-3.7 3.2-4.2 4.2-2.5zm16.3 9.3c2.6 2.5 2.8 3.6.5 5.2-1.4 1-2.1 1-4-.2-1.3-.9-3.2-1.3-4.3-1-3 .8-3.4-1-.8-4.2 2.6-3.3 4.8-3.2 8.6.2zM169.6 42c.8 0 1.4.4 1.4.8 0 1.1-2.9 4.9-3 3.8 0-.5-.7-.3-1.5.4-1.8 1.5-1.9.4-.3-4.1.6-1.8 1.3-2.8 1.6-2.1.2.6 1 1.2 1.8 1.2zm69.9 5.4c1.9.8 3.5 1.7 3.5 1.9 0 .5-8.2-2.2-8.9-2.9-.9-.9 2.2-.3 5.4 1zm-6.4 3.6c-.2.8-.4 3.1-.3 4.9 0 4 2.2 6.1 6.4 6.1 2.2 0 3.1-.6 3.9-2.7.5-1.4.7-3.3.5-4-1.1-2.8 1.2-.2 2.8 3.1 2.1 4.5 2 5.3-.9 6-1.4.4-2.5 1.3-2.5 2.1 0 2.1 3.1 5.5 5 5.5s5.6 10.3 7.1 19.6c2.3 14.6 2.3 14.5.5 13.8-1-.4-1.5-1.2-1.2-1.9.9-2.3-5.6-10.5-13.8-17.3-.9-.7-1.6-2-1.6-3 0-1.6-3.7-14.7-7.9-28l-2-6.3 2.2.3c1.4.2 2.1.9 1.8 1.8zm-25.3 21.1l3.3 3-2.1 1.7c-1.3 1.1-2.2 2.9-2.2 5-.1 2.1-.8 3.7-1.9 4.2-2.6 1.4-2.8 1.3-2.7-2.2.1-2.3-.7-3.9-3.1-6-3.8-3.4-6.1-3.5-8.8-.6-2.9 3.2-1.5 6.2 4.1 9 3.9 1.9 4.3 2.3 3.3 4-3.1 4.9 4.9 7 12.6 3.3 3.2-1.5 4.2-1.6 6.5-.5 2.6 1.1 2.6 1.2.8 2.5-1.7 1.3-1.7 1.8-.6 4.5 1.4 3.4 8.8 10 11.2 10 .8 0 2.5 1.1 3.7 2.4l2.2 2.3-3.3.8c-6.1 1.3-9.4 1.6-7.8.5 1-.6-.1-.8-3.6-.4-4.7.6-5.1.5-6.8-2.2-3.6-5.6-6.9-8.3-13-10.5-3.3-1.2-6.7-2.7-7.5-3.3-.8-.6-2.3-1-3.4-.8-1.3.3-1.7 0-1.2-.8.6-1-1.2-1.1-7.4-.8-4.4.3-8.1.3-8.1-.1 0-.3.9-2 2-3.6 2.5-3.8 2.5-4.9-.1-3.5-4.5 2.4-2.9-.3 4.3-7.2 7.2-7.1 13.9-11.4 20.2-12.9 5.1-1.2 6-1 9.4 2.2zm-43.6 4.7c-.2 1.8.1 3.9.7 4.5.5.7 1.2 7.2 1.5 14.6.3 7.3.8 13.6 1 13.9.2.4.7 3.5 1 7 .5 5.3.2 6.6-1.5 8.6-1.4 1.6-2.7 2.2-4.5 1.8-1.6-.3-2.2-.8-1.5-1.6 1.7-2.2 1.9-8.4.4-20.3-.8-6.8-1.2-13.1-.8-14 1.4-3.1 1.6-9.7.4-12.5-1.4-3.4-.5-6.1 1.8-5.6 1.4.3 1.7 1.2 1.5 3.6zM263.4 95c2.1 8.4 2.8 14 1.6 14-1.1 0-1.1-.1-4-14.5-1.1-5.5-2.2-11.1-2.5-12.5-1-4.5 3.5 7.4 4.9 13zM64 92.2c0 1.9-1.1 3.1-5.5 6.4l-4 2.9 1.9-2.9c3.8-5.9 7.6-9.1 7.6-6.4zm192 16.4c7.1 3.5 8.9 4.9 9 6.7 0 .4-1.7.5-3.8.1-2.7-.4-4.1-.2-5 .9-1.1 1.2-.7 2 2.4 4.5 2 1.7 4.2 2.8 4.9 2.6.6-.3 2.5 0 4 .6 2.3.9 2.6 1.3 1.5 2-1.2.8-1.1 1 .4 1 1.1 0 1.6.3 1.2.7-.3.4.4 1.3 1.6 2l2.3 1.3-2.2-.3c-1.2-.2-2.5-.6-2.9-.9-.3-.4-1.3-.4-2.2-.1-1.1.5-1.3.3-.7-.7.6-1 .4-1.2-.8-.7-1 .4-1.7.1-1.7-.6 0-.8-.3-.9-.8-.1-1.2 1.8-5.3 2.4-6.7 1-.7-.7-2.7-2.5-4.5-3.9-2.6-2.2-3.1-3.2-2.6-5.3.5-2-.1-3.5-3-7.1-2.9-3.5-3.8-5.6-4.2-9.5l-.5-5.1 3.4 3.6c1.9 2 6.8 5.3 10.9 7.3zm-81.5-.1l-1.2 6-.8-4.9c-.7-4.2-.5-5.1 1-6.3 1-.7 1.9-1.2 2.1-1 .1.1-.4 2.9-1.1 6.2zm19.5-5.2c5.1 1.1 5.5 1.4 5.6 4.2.1 1.6.9 5.4 1.7 8.2l1.6 5.3h-7.3c-4 0-9.8.5-13 1.1-7.2 1.5-9.6 0-4.5-2.7 4.6-2.3 5-3 4.8-9.9v-6.8c.1-1 4.5-.7 11.1.6zM55.7 116.2c-.3.8-.6.5-.6-.6-.1-1.1.2-1.7.5-1.3.3.3.4 1.2.1 1.9zm191.1 2.1c-.5 3.6-2.5 3-2.4-.7.1-2.7.4-3.2 1.4-2.3.7.5 1.2 1.9 1 3zm-21 4c.2 1.5 1.2 3.3 2.3 4 1 .6 1.9 1.6 1.9 2 0 .8-24-.1-24.9-.9-.2-.2.2-1.1 1-2 1.1-1.4 1-1.8-.6-3.1-2-1.5-2-1.5.2-1 1.2.3 2.4 0 2.6-.7.3-.7.9-.6 2.2.4 1.6 1.3 1.9 1.3 2.9-.3.9-1.4 2.2-1.7 6.6-1.5 5.2.3 5.5.5 5.8 3.1zm-22.5 4c.6 1.5-2.7 1.7-4 .2-.5-.4-.2-.5.5-.1.6.4 1.2.2 1.2-.3 0-1.5 1.7-1.4 2.3.2zm-150.6 1.9c-.3.8-.6.5-.6-.6-.1-1.1.2-1.7.5-1.3.3.3.4 1.2.1 1.9zM240 128c0 .5-.4 1-1 1-.5 0-1-.5-1-1 0-.6.5-1 1-1 .6 0 1 .4 1 1zm-51.5 2.6c28.1 1.4 27.6 1.3 35 5 3.9 1.9 8.5 4.8 10.4 6.5 3.2 2.9 3.3 3.3 2.9 9-.3 4.6-.9 6.3-2.5 7.4-1.2.8-2.5 3-2.8 4.8-.4 1.7-1.6 6-2.8 9.5l-2 6.3 2.2 2.3c2.1 2.2 2.1 2.7 1.1 9.2-1 6.4-4.8 20.5-7.1 26.5-.5 1.4-4 5.5-7.7 9.1-5.6 5.5-7.8 6.9-13.7 8.8-9.7 3.1-15.5 6.4-22.5 12.8-4.6 4.1-8.5 6.4-16.3 9.7-5.6 2.3-16.7 7.1-24.7 10.6l-14.5 6.4-13.5-.1c-7.4-.1-16.1-.7-19.3-1.3C84.6 272 73 267.3 73 266c0-.4 1.5-1.8 3.3-3 3.1-2.2 10.3-10.7 11.3-13.5.7-1.8-3.3-3.5-8.1-3.5-2.3 0-5.5 1.5-10.8 5-4.1 2.8-8 5-8.5 5-1.8 0-5.9-8.1-8.1-16.1-3-10.9-4.4-31.2-3.6-52.4 1.1-30.4 1.7-33.4 6.8-33.5 1 0 5.2-1.4 9.4-3 4.1-1.7 8.3-3 9.3-3 1.8 0 1.8.2.2 3.2-2.6 5-2.4 22.2.3 26.6 2.6 4.4 5.4 3.9 7.9-1.2 2.7-5.5 3.3-18 1.3-24-1.2-3.3-1.3-4.6-.4-4.6.7 0 4-1.3 7.4-2.9 8.3-4 17.6-6.2 22.2-5.5 2.8.4 5.2 0 8.6-1.5 3-1.3 6.8-2.1 10.4-2.1 3.2 0 6.5-.6 7.6-1.4 3.1-2.1 16.9-4 19.5-2.6 2.3 1.2 14.5-.1 17.7-1.9 1-.6 2.5-.8 3.3-.4.8.3 4.7.8 8.5.9zm-134.5 0c0 .8-1.9 1.3-2.4.6-.3-.5.1-.9.9-.9s1.5.2 1.5.3zm210.9 4.1c1.3 1.3 3.2 2.3 4.2 2.3 1.1 0 1.9.2 1.9.5 0 1-2.4 5.5-2.9 5.5-1.2 0-3.2-1.7-3-2.6.4-2.2-.2-2.6-2-1s-1.9 1.6-2.5-1.6c-.3-1.8-.8-4.4-1.1-5.6-.4-2.1-.2-2.2 1.3-1.1.9.8 2.8 2.4 4.1 3.6zM99 133.3c1 .4.8.6-.6.6-1.2.1-2.5-.6-2.8-1.5-.5-1.3-.3-1.4.6-.7.7.6 2 1.3 2.8 1.6zm181 .9c0 1.2-.1 1.9-.3 1.7-.1-.2-.9-1.2-1.6-2.2-1.2-1.4-1.1-1.7.3-1.7 1 0 1.6.8 1.6 2.2zm-221 6.2c0 1.1-1.9 1.5-2.5.6-.3-.5.1-1 .9-1 .9 0 1.6.2 1.6.4zm222 6.8c0 .5-.7.8-1.5.8-1 0-1.5-1-1.5-3.3l.1-3.2 1.4 2.5c.8 1.4 1.4 2.8 1.5 3.2zm-36.2 5.5c.7 1.1.6 2.3-.1 3.5-1.5 2.3.6 4.9 2.4 3.1 1.4-1.4 3.9-.6 3.9 1.4 0 .9-.6 1.2-1.7.9-1-.3-3-.8-4.5-1.2-2.5-.6-2.8-1-2.8-5 0-4.5 1.2-5.7 2.8-2.7zm7.1 13.3c3.8 2 1.7 12.5-3 15-2.4 1.3-12.9.6-16-1.1-1.6-.8-1.6-1.1.1-4.4 1-2 2.2-5.5 2.5-7.7l.7-4.1 6.9.6c3.7.3 7.7 1.1 8.8 1.7zm8.2 6.9c.1.9.1 1.9 0 2.3 0 .5.3.8.8.8 1.5 0 2.1 4.2 1.2 8.2-.5 2.2-.5 3.6 0 3.2 1.8-1.1.8 4.2-1.1 5.8-1.9 1.7-7.4 4.8-8.4 4.8-.3 0-1-.9-1.5-1.9-.8-1.5-.3-3.4 2.6-8.7 2-3.8 4-7.2 4.5-7.5.9-.6.5-6.7-.7-10.4-.7-2-.6-2 .9-.1.9 1.1 1.7 2.7 1.7 3.5zm-15.3 14.5c.2 1.5-.4 6.1-1.3 10.2-1.6 7.1-1.7 7.4-6.7 10.4-2.7 1.7-5.1 3-5.3 2.8-.1-.2.8-4.8 2.1-10.3 1.3-5.5 2.4-11.4 2.4-13.1 0-4 .3-4.2 4.8-3.5 3.2.5 3.7 1 4 3.5zm6.6-1.9c-.9 1.4-1.9 2.4-2.1 2.1-.7-.7 1.6-4.6 2.8-4.6.5 0 .2 1.1-.7 2.5zm7.7 24.2c.4 2.3.1 3.5-1.2 4.7-1.1.9-1.9 1.2-1.9.8 0-.4-.5.1-1.1 1-.5 1-2 1.8-3.3 1.8-1.2 0-5.5 1.6-9.5 3.5-3.9 1.9-7.7 3.5-8.4 3.5-.7 0-1.7.4-2.2.9-.6.5-2.8 1.1-5 1.3-2.2.3-4.8.8-5.7 1.2-1.2.5-1.8.4-1.8-.4 0-.6.5-.8 1-.5.6.3 1-.1 1-.9 0-2 10.5-10.7 16.1-13.4 9.5-4.4 13.9-6.2 15.4-6.2.9 0 1.4-.4 1.1-.9-.4-.5.5-.6 2.1-.2 2 .5 2.9 1.6 3.4 3.8zm-3.5 15.5c-2.3 3.5-9.4 8.4-17.9 12.3-8.8 4-38.6 14.7-39.9 14.3-.5-.2 5.5-2.5 13.4-5.2 19.2-6.4 35-14.2 40.7-20 4.7-4.8 6.3-5.4 3.7-1.4zm-.1 7c-.9 1.8-3 6.4-4.7 10.3-2.8 6.8-9.3 14.9-11 13.9-.4-.3-.8-.1-.8.3 0 .5-1.3 1.4-3 2-2 .8-3 .8-3 .1 0-.7-.4-.7-1.2-.1-.7.5-2.6 1-4.2 1.1-1.6.1-3.5.7-4.2 1.3-.8.6-1.4.9-1.4.6 0-.3-1.3-.1-3 .4-1.6.6-3 1.5-3 2s-.7.9-1.5.9-1.5.5-1.5 1c0 .7-.6.7-2 0-2.2-1.2-2.7-.1-.7 1.9 1 1.1.9 1.3-.4.8-.9-.3-2.2 0-2.9.6-1 .9-1.4.9-1.7-.1-.7-1.9-3.7-1.4-9.8 1.8-3.1 1.6-6.6 3-7.6 3s-1.9.3-1.9.8c0 .4-1.8 1.8-4 3.2-2.2 1.4-4 2.9-4 3.4s-.3.7-.6.3c-.6-.6-7.6 6.2-11.4 11-3.6 4.6-2.1 1.1 2.4-5.6 2.4-3.7 5.3-9.3 6.5-12.6 1.2-3.3 2.8-6.8 3.5-7.8 2-2.6 16.6-9 33.8-14.7 20.9-7 39.7-16.6 43-22 2-3.1 2.2-1.4.3 2.2zm-25.5.2c0 .2.3 1.1.6 1.9.4 1.1-.8 2.1-4.1 3.6-6.2 2.8-17.7 6.3-18.3 5.6-.3-.3-1.1 0-1.8.6-.8.7-1.4.7-1.9-.1-.4-.7-1.2-.7-2.6 0-1.4.8-1.9.7-1.9-.2 0-1-.2-1-.9.1-.5.8-1.6 1.1-3 .6-1.1-.3-2.1-.3-2.1.2 0 .4-1.4.8-3 .9-2.7.1-2.8 0-1.2-1.2 4.7-3.6 40.2-14.2 40.2-12zm-9 14.6c-.8.5-2.2.9-3 .9-1 0-.8-.3.5-.9 2.7-1.2 4.3-1.2 2.5 0zm-136.5 2c.6 1-7.5 9.5-14.1 14.7l-4.1 3.1-2.9-2.3c-2.6-2.1-2.7-2.5-1.6-4.7 1.3-2.3 7.8-7.2 13.7-10.2 3.4-1.8 8.1-2.1 9-.6zm-28 8.6c1.3 2 1.4 2.8.4 4-2 2.4-2.9 1.6-2.9-2.6 0-2.2.2-4 .4-4s1.1 1.2 2.1 2.6zm114.1 1.5c-1.4 1.1-2.6 2.8-2.6 3.7-.1 2.2-2.2 6-3.5 6.3-1.3.2-2.3.5-6.4 1.8-4.6 1.5-10.8 1.4-11.4-.2-.4-.8-.8-.8-1.4-.2-.4.5-1.2 1.1-1.8 1.2-.5.1-1.9.4-3 .8-1.1.3 2.3-1.5 7.5-4 5.2-2.4 12.7-6 16.5-7.9 8.1-4 9.9-4.5 6.1-1.5zm11.4-1.7c0 .8-8.2 5.7-8.8 5.2-.7-.8-.5-.9 4.3-3.4 4.4-2.3 4.5-2.4 4.5-1.8zm71.2 9.8c-.7.7-1.2.8-1.2.2 0-1.4 1.2-2.6 1.9-1.9.2.3-.1 1.1-.7 1.7zM56.5 267c-.7 1.2 1.2 4 2.7 4 .6 0 .8-.7.4-1.5-.4-1.1.1-1.5 1.9-1.5 3.3 0 3.2 2-.5 5.5l-2.9 2.8-2.4-2.3c-2.2-2.1-2.3-2.5-1-5.2.8-1.5 1.7-2.8 1.9-2.8.3 0 .2.5-.1 1zm200.5 1c0 .5-.4 1-1 1-.5 0-1-.5-1-1 0-.6.5-1 1-1 .6 0 1 .4 1 1zm-181.2 4c.5 0 1.5.7 2.2 1.5.7.9 1.5 1.3 1.8 1.1.2-.3 2 .1 3.9.9 2 .8 4.6 1.5 5.9 1.5 1.3 0 2.4.3 2.4.7 0 .5 2.6.9 5.8 1 6.2.2 38.3 3.2 42 3.9 1.2.2 2.2.8 2.2 1.3 0 1.7-18.8 7-30.8 8.6-10.4 1.5-14.2 1.6-24.9.7-15.1-1.3-20.8-3.6-23.6-9.5-2.6-5.2-1.5-7.2 1.1-2.1 2.6 5.2 7.1 7.2 9.6 4.5s2-4.2-3-8.8c-4.6-4.2-4.7-4.3-3-6.8l1.7-2.6L72 270c1.5 1.1 3.2 2 3.8 2zm173.2-3.3c-.1 1.4-3 4.7-3.6 4.1-.3-.3.3-1.6 1.3-2.7 1.9-2.3 2.3-2.5 2.3-1.4zm-5 1.2c0 .6-.4 1.3-1 1.6-.5.3-1-.1-1-.9 0-.9.5-1.6 1-1.6.6 0 1 .4 1 .9zm8 1.1c0 .5-.4 1-1 1-.5 0-1-.5-1-1 0-.6.5-1 1-1 .6 0 1 .4 1 1zm2.5 1c.3.5.1 1-.4 1-.6 0-1.1-.5-1.1-1 0-.6.2-1 .4-1 .3 0 .8.4 1.1 1zm-14.5 1.5c0 .8-.4 1.5-1 1.5-.5 0-.7-.7-.4-1.5.4-.8.8-1.5 1-1.5.2 0 .4.7.4 1.5zm3 2.1c0 .8-.5 1.2-1 .9-.6-.4-.8-1.1-.5-1.6.9-1.4 1.5-1.1 1.5.7zm-204.6 1c.5 1.4.4 1.5-.9.4-1.7-1.4-1.9-2-.6-2 .5 0 1.2.7 1.5 1.6zm195.7 1.7c-.8.8-1.1.7-1.1-.4 0-2 1.3-3.4 1.8-1.9.3.7-.1 1.7-.7 2.3zm32.8 3.2c3.7 4.3 3.9 5.4.7 4.8-1.4-.3-2.3-1-2-1.7.8-2.3-1.5-4-5.7-4.1-4.7-.1-5.8-1.4-3.4-3.9 1.4-1.4 1.9-1.4 4.4-.1 1.5.7 4.2 3 6 5zm-67.2-4c0 .9-1 1.8-2.3 2.1-1.2.3-3.5 2.6-5 5s-3.2 4.4-3.6 4.4c-1 0 .8-3.6 2.2-4.5.6-.4.8-1 .5-1.5-.3-.4.2-1 1-1.4.8-.3 1.5-1.1 1.5-1.9 0-.7 1.2-1.8 2.8-2.4 1.5-.6 2.7-1.1 2.8-1.2 0-.1.1.6.1 1.4zm-157.6 2.2c1.3 1.6 1.2 1.7-.3.4-1.7-1.3-2.2-2.1-1.4-2.1.2 0 1 .8 1.7 1.7zm187.1 1.5c-1.5 1.5-2.4.6-1.6-1.6.5-1.2 1-1.4 1.7-.7.8.8.8 1.4-.1 2.3zm8.8-2.2c0 .5-.4 1-1 1-.5 0-1-.5-1-1 0-.6.5-1 1-1 .6 0 1 .4 1 1zm3.5 2c.3.5.2 1-.4 1-.5 0-1.3-.5-1.6-1-.3-.6-.2-1 .4-1 .5 0 1.3.4 1.6 1zm7.8 2c.3 1.1.2 2-.3 2-1.4 0-3.2-2.9-2.5-4 .9-1.4 2.1-.5 2.8 2zM57 288.6c0 .7-11.8-5.4-12.4-6.5-.3-.4 2.4.7 5.9 2.6 3.6 1.9 6.5 3.6 6.5 3.9zm165.8-5.9c-.2.9-.8 1.8-1.5 2-.7.3-.9-.3-.6-1.6.6-2.5 2.6-2.8 2.1-.4zm10.2-.8c0 .6-.4 1.3-1 1.6-.5.3-1-.1-1-.9 0-.9.5-1.6 1-1.6.6 0 1 .4 1 .9zm-35.7 1.6c-.3.9-.8 1.4-1 1.1-.3-.3-.2-.9.2-1.5.9-1.6 1.5-1.3.8.4zm39.3 2.2c-.7.7-2.6-.7-2.6-1.9 0-.6.6-.6 1.5.2.9.7 1.3 1.5 1.1 1.7zm-10.5.6c-1.3 1.3-2.6.3-1.6-1.2.3-.6 1.1-.8 1.7-.5.6.4.6 1-.1 1.7zm-78.9.6c-.8.4-1.3 1.1-1.2 1.5.1.4 0 1.5-.3 2.6-.6 2.3-3.4 2.7-3.4.5 0-.8.7-1.5 1.5-1.5s1.2-.6.9-1.4c-.6-1.4.6-2.4 2.8-2.5.6 0 .4.3-.3.8zm72.6.3c-.2.6-1 1.4-1.6 1.6-.7.2-1-.2-.6-1.2.7-1.8 2.8-2.2 2.2-.4zm34.4 1c-.6.6-1.5.8-1.9.4-.4-.4-.1-1.1.7-1.6 1.9-1.2 2.7-.3 1.2 1.2zM230 288c.8.5 1.1 1 .5 1-.5 0-1.7-.5-2.5-1s-1-1-.5-1c.6 0 1.7.5 2.5 1zm-6.5 2.1c-1 1.5-2.5 1-1.9-.6.4-.8 1-1.2 1.5-.9.5.3.7 1 .4 1.5zm-8.5.3c0 1.5-1.8 3.1-2.6 2.3-.7-.7.7-3.7 1.7-3.7.5 0 .9.6.9 1.4zm25 1.1c0 .8.5 1.5 1.1 1.5.5 0 .7.5.4 1-.4.7-1.7.4-3.5-.7-3.1-1.8-3.1-3.3.1-3.3 1 0 1.9.7 1.9 1.5zm-21.4 2.2c-1 1-1.9-.5-1-1.8.6-1.1.8-1.1 1.2 0 .2.7.1 1.5-.2 1.8zm9.5-1c1.3 1.5 1.2 1.5-.8.4-2.4-1.2-2.9-2.1-1.4-2.1.5 0 1.5.7 2.2 1.7zm-3.4 2.6c.4.7 0 .8-1.1.4-1-.4-2.2-.7-2.7-.7s-.9-.4-.9-.9c0-1.2 3.8-.2 4.7 1.2zm-14 1.2c-.4.8-1.1 1.5-1.7 1.5-.7 0-.7-.6 0-2.1 1.3-2.3 2.6-1.9 1.7.6zm36.3-.6c0 1.4-1.8 2.3-3 1.6-.6-.4-.8-1.1-.5-1.6.8-1.2 3.5-1.2 3.5 0z"/><path d="M119.7 27c-5.8.5-8 2-7.4 5 .6 4 15.7 1.2 15.7-2.8 0-2.6-1.3-2.9-8.3-2.2zM142.7 34c-1.4 1.1-2.7 3-2.9 4.3-.3 1.9-1 2.2-5.4 2.3-5.4.2-11.9 3.2-11.9 5.5 0 1.7 9.5 2.5 12.3 1 1.4-.8 2.2-.5 3.5 1 2.7 3.1 7.3 2.5 11.3-1.5 1.9-1.9 3.4-4 3.4-4.8 0-.7 1.4-2.1 3.1-3 3.5-2 3-3.8-1-3.8-1.5 0-3.6-.7-4.7-1.5-2.6-2-4.7-1.9-7.7.5zM93 48.6c-3 2.9-4 3-6.3.4-2.3-2.7-4.1-2.5-6.6.6-2.8 3.6-2.9 10.4 0 13 1.6 1.5 2.3 1.6 3.7.6.9-.6 5-2.7 8.9-4.6 8-3.8 10.4-6.7 8.4-10.5-1.5-2.8-5-2.6-8.1.5zM107.9 55.1c-3 1.6-6.4 3.4-7.6 4.1-2.5 1.2-3.9 5.4-2.3 7.3.5.6.7 2.6.4 4.4-.6 2.9-.5 3.1 2.4 3.1 4.2 0 14.6-8.6 16.2-13.4 1.2-3.8.3-6.9-2.4-7.9-.7-.3-3.8.8-6.7 2.4zM133 54.2c-8.5 4-9.6 6.7-3.9 8.7 3.6 1.2 5.4.6 9.6-3.3 3.6-3.2 4.2-6 1.7-7-2.2-.9-2.4-.8-7.4 1.6zM127.4 72.7C121.5 79 117.1 88 119.8 88c.4 0 2.9-1.3 5.4-2.9 2.6-1.6 6-2.9 7.5-2.9 3.7.1 10.3-2 12.6-4 4-3.5.7-7-5.3-5.7-2 .4-3.7.1-5.2-.9-3.1-2.2-4.5-2-7.4 1.1zM87.8 80.7C81.6 84.9 80.4 93 86.1 93c2.5 0 8.4-5.3 9.9-9 2.6-6.2-1.6-7.9-8.2-3.3zM103.2 95c-.6 1.1-1.2 2.2-1.2 2.4 0 .7 13.1 11 15.7 12.4 3.5 1.9 5.9 1.4 7.1-1.3 1.6-3.5 1.6-3.9-1.4-7.5-5.7-6.7-17.5-10.2-20.2-6zM59.6 125.1c-.9 1.3-1.6 3.6-1.6 5.1 0 1.5-.4 3-1 3.3-.5.3-1 1-1 1.6 0 1.8 4-3.1 5.5-6.8 1.8-4.4.5-6.6-1.9-3.2zM61 134c0 .5.5 1 1.1 1 .5 0 .7-.5.4-1-.3-.6-.8-1-1.1-1-.2 0-.4.4-.4 1zM59 136c.8.5 2.2.9 3 .9 1 0 .8-.3-.5-.9-2.7-1.2-4.3-1.2-2.5 0zM214.3 37.3c-2.3 1-3.2 3.1-2.5 5.9.5 2.3 4.5 2.4 6.6.2 3.6-3.5.4-8.2-4.1-6.1zM244.5 60c-.3.5-.1 1 .4 1 .6 0 1.1-.5 1.1-1 0-.6-.2-1-.4-1-.3 0-.8.4-1.1 1zM142.2 140.7c-2.4 5.4-2.3 21.5.1 26.1 1 1.8 2.5 3.6 3.3 3.9 4.3 1.6 8-9 7.2-20.7-.6-8.6-2.5-12.4-6.1-12.8-2.3-.3-3 .2-4.5 3.5zM236.7 168.2c-.3 1.8-.9 4.7-1.2 6.4-.6 2.9-.4 3.2 2.7 4.4 1.8.7 3.8 1.2 4.3 1 .6-.1 2.1-.3 3.4-.4 2.8-.1 5.8-3.8 6.7-8.3.8-3.9-.7-4.8-9.2-5.8l-6.1-.7-.6 3.4zm4.6.7c.6 2.2-1.9 8.4-3.1 7.7-1-.6.7-9.6 1.9-9.6.3 0 .9.8 1.2 1.9zm7.6.8c0 .5-.4 1.7-.9 2.8-.8 1.8-.9 1.7-.9-.8-.1-1.5.4-2.7.9-2.7.6 0 1 .3.9.7zm-4.9 5.4c-1.9 4.5-3 3.4-1.2-1.2.9-2.3 1.8-3.6 2-3 .2.7-.1 2.5-.8 4.2zM260 181c0 .5.5 1 1.1 1 .5 0 .7-.5.4-1-.3-.6-.8-1-1.1-1-.2 0-.4.4-.4 1zM238.6 185.9c-.9 1.4.4 4.1 2 4.1.8 0 1.4-1 1.4-2.5 0-2.5-2.3-3.5-3.4-1.6zM237.6 194.8c-.3.5-.3 1.8.1 3 .5 2 .5 2 2.5.2 1.1-1 1.7-2.3 1.3-2.9-.7-1.3-3.2-1.5-3.9-.3z"/></svg>